<svg height="512" viewBox="0 0 512 512" width="512" xmlns="http://www.w3.org/2000/svg"><g id="flat"><path d="m344 144h-112v-48a56 56 0 0 1 56-56 56 56 0 0 1 56 56z" fill="#fbd699"/><path d="m352 144h48v184h-48z" fill="#cd9c7a"/><path d="m80 144h272v184h-272z" fill="#eeb58e"/><path d="m397.5 488h-282.995a66.5 66.5 0 0 1 -66.505-66.5v-45.5h416v45.5a66.5 66.5 0 0 1 -66.5 66.5z" fill="#985713"/><g fill="#70400e"><path d="m80 400h32v16h-32z"/><path d="m144 400h32v16h-32z"/><path d="m208 400h32v16h-32z"/><path d="m272 400h32v16h-32z"/><path d="m336 400h32v16h-32z"/><path d="m400 400h32v16h-32z"/><path d="m80 432h32v16h-32z"/><path d="m144 432h32v16h-32z"/><path d="m208 432h32v16h-32z"/><path d="m272 432h32v16h-32z"/><path d="m336 432h32v16h-32z"/><path d="m400 432h32v16h-32z"/></g><path d="m472 232a23.891 23.891 0 0 1 -6.12 16c-.29.33-.6.65-.91.97a23.962 23.962 0 0 1 -16.97 7.03v72h-128v-144h104a48 48 0 0 1 48 48z" fill="#fbb540"/><path d="m208 144h-112a154.51 154.51 0 0 1 45.255-109.255l10.745-10.745 10.745 10.745a154.51 154.51 0 0 1 45.255 109.255z" fill="#fbb540"/><path d="m176 112h-21.089a26.91 26.91 0 0 0 -26.911 26.911v5.089h21.089a26.91 26.91 0 0 0 26.911-26.911z" fill="#c38325"/><path d="m312 112h-21.089a26.91 26.91 0 0 0 -26.911 26.911v5.089h21.089a26.91 26.91 0 0 0 26.911-26.911z" fill="#fbb540"/><path d="m136 72h16v16h-16z" fill="#c38325"/><path d="m465.88 248c-.29.33-.6.65-.91.97a23.962 23.962 0 0 1 -16.97 7.03v8h-56v-16z" fill="#f3af3e"/><path d="m296 72h16v16h-16z" fill="#fbb540"/><circle cx="136" cy="312" fill="#fbd699" r="80"/><path d="m168 288h-8v-8a8 8 0 0 0 -16 0v8h-16v-8a8 8 0 0 0 -16 0v8h-8a8 8 0 0 0 0 16h8v40a8 8 0 0 0 16 0v-40h16v40a8 8 0 0 0 16 0v-40h8a8 8 0 0 0 0-16z" fill="#f3af3e"/><path d="m112 168h16v16h-16z" fill="#cd9c7a"/><path d="m144 168h56v16h-56z" fill="#cd9c7a"/><path d="m48 368h416v24h-416z" fill="#834b10"/><rect fill="#985713" height="48" rx="24" width="464" x="24" y="328"/><path d="m176 328 176 80 96-80z" fill="#428dc5"/><path d="m392 256v72h-144v-72a24 24 0 0 1 -24-24 48 48 0 0 1 48-48h96a48 48 0 0 1 48 48 24 24 0 0 1 -24 24z" fill="#fbd699"/><path d="m272 269.295h16v16h-16z" fill="#f3af3e"/><path d="m272 216h16v16h-16z" fill="#f3af3e"/><path d="m336 216h16v16h-16z" fill="#f3af3e"/><path d="m336 288h16v16h-16z" fill="#f3af3e"/><path d="m352 248h16v16h-16z" fill="#f3af3e"/></g></svg>