<svg id="flat" height="512" viewBox="0 0 512 512" width="512" xmlns="http://www.w3.org/2000/svg"><path d="m48 224h272v128h-272z" fill="#00b55b"/><path d="m24 96h272v128h-272z" fill="#02c26a"/><path d="m72 248h72v16h-72z" fill="#00a64f"/><path d="m72 280h72v16h-72z" fill="#00a64f"/><path d="m72 312h72v16h-72z" fill="#00a64f"/><path d="m224 248h96v16h-96z" fill="#00a64f"/><path d="m224 280h96v16h-96z" fill="#00a64f"/><path d="m224 312h96v16h-96z" fill="#00a64f"/><g fill="#00b55b"><path d="m48 120h72v16h-72z"/><path d="m48 152h72v16h-72z"/><path d="m200 120h96v16h-96z"/><path d="m200 152h96v16h-96z"/><path d="m200 184h96v16h-96z"/><path d="m48 184h72v16h-72z"/></g><path d="m120 96h80v128h-80z" fill="#e0edff"/><path d="m144 224h80v128h-80z" fill="#c8dbf7"/><path d="m168 96h.00006a55.99994 55.99994 0 0 0 55.99994-55.99994v-16.00006h64v16.00006a55.99994 55.99994 0 0 1 -55.99994 55.99994z" fill="#00b55b"/><path d="m376 440h112v40h-112z" fill="#ffb401" transform="matrix(-1 0 0 -1 864 920)"/><path d="m376 400h112v40h-112z" fill="#ffa100" transform="matrix(-1 0 0 -1 864 840)"/><path d="m296 440h80v40h-80z" fill="#ffc431"/><path d="m376 360h112v40h-112z" fill="#f78e00" transform="matrix(-1 0 0 -1 864 760)"/><path d="m360 320h112v40h-112z" fill="#ffc431" transform="matrix(-1 0 0 -1 832 680)"/><path d="m376 280h112v40h-112z" fill="#ffb401" transform="matrix(-1 0 0 -1 864 600)"/><path d="m368 240h112v40h-112z" fill="#ffa100" transform="matrix(-1 0 0 -1 848 520)"/><path d="m328 200h112v40h-112z" fill="#f78e00" transform="matrix(-1 0 0 -1 768 440)"/><circle cx="400" cy="136" fill="#ffc431" r="64"/><path d="m396.001 120h27.999v-16h-16v-8h-16v8.40326a20.00124 20.00124 0 0 0 4.001 39.5982h.00732l7.98926-.00292h.00146a4.00073 4.00073 0 1 1 0 8.00146h-27.99904v16h16v8h16v-8.40326a20.00124 20.00124 0 0 0 -4.001-39.5982h-.00732l-7.98926.00292h-.00142a4.00073 4.00073 0 1 1 0-8.00146z" fill="#ffa100"/><path d="m24 352h272v128h-272z" fill="#02c26a"/><path d="m48 376h72v16h-72z" fill="#00b55b"/><path d="m48 408h72v16h-72z" fill="#00b55b"/><path d="m48 440h72v16h-72z" fill="#00b55b"/><path d="m200 376h96v16h-96z" fill="#00b55b"/><path d="m200 408h96v16h-96z" fill="#00b55b"/><path d="m200 440h96v16h-96z" fill="#00b55b"/><path d="m120 352h80v128h-80z" fill="#e0edff"/><path d="m296 400h80v40h-80z" fill="#ffb401"/></svg>