<svg id="Capa_1" enable-background="new 0 0 497 497" height="512" viewBox="0 0 497 497" width="512" xmlns="http://www.w3.org/2000/svg"><path d="m248.499 375.925c-66.759 0-121.072 54.314-121.072 121.075h242.147c-.001-66.761-54.314-121.075-121.075-121.075z" fill="#d2dff7"/><path d="m248.499 375.925c-66.759 0-121.072 54.314-121.072 121.075h66.073v-58.952c0-2.954.857-5.853 2.502-8.306 17.47-26.05 44.767-44.98 76.552-51.413-7.777-1.574-15.821-2.404-24.055-2.404z" fill="#adc0ed"/><circle cx="248.5" cy="434.11" fill="#adc0ed" r="15"/><circle cx="248.5" cy="482" fill="#adc0ed" r="15"/><path d="m103.372 207.548c-19.927 0-36.081 16.154-36.081 36.081 0 19.928 16.154 36.082 36.081 36.082s36.082-16.154 36.082-36.082c0-19.927-16.155-36.081-36.082-36.081z" fill="#ffbd86"/><path d="m393.628 207.548c-19.927 0-36.082 16.154-36.082 36.081 0 19.928 16.154 36.082 36.082 36.082s36.081-16.154 36.081-36.082c0-19.927-16.154-36.081-36.081-36.081z" fill="#ffbd86"/><path d="m289.184 382.966c60.347-17.591 104.443-73.311 104.443-139.337 0-80.153-64.976-145.129-145.129-145.129-80.15 0-145.127 64.976-145.127 145.129 0 66.026 44.097 121.746 104.442 139.337 12.91 3.763 26.56 5.789 40.684 5.789 14.127 0 27.777-2.026 40.687-5.789z" fill="#fed2a4"/><path d="m151.481 243.629c0-71.957 52.372-131.671 121.073-143.133-7.825-1.306-15.859-1.996-24.055-1.996-80.15 0-145.127 64.976-145.127 145.129 0 80.15 64.977 145.127 145.127 145.127 8.196 0 16.229-.69 24.055-1.996-68.701-11.462-121.073-71.176-121.073-143.131z" fill="#ffbd86"/><path d="m285.293 207.819c25.031 36.415 78.868 36.384 103.879.005-15.944-62.836-72.877-109.324-140.673-109.324-67.792 0-124.725 46.486-140.671 109.322 54.204 36.814 124.68 35.898 177.465-.003z" fill="#e37858"/><path d="m272.554 100.496.014-.003c-7.829-1.307-15.869-1.993-24.069-1.993-67.792 0-124.725 46.486-140.671 109.322 13.922 9.455 28.922 16.403 44.416 20.928 6.639-65.18 56.406-117.593 120.31-128.254z" fill="#dd6642"/><path d="m359.184.002c-2.217 0-219.128 0-221.353 0-16.569 0-30 13.432-30 30v177.819c89.459-38.985 191.426-39.186 281.353 0v-177.819c0-16.569-13.431-30-30-30z" fill="#d2dff7"/><g fill="#adc0ed"><path d="m188.302 0h-50.478c-16.569 0-30 13.431-30 30v177.819c17.647-7.69 35.768-13.86 54.175-18.525v-125.793c0-23.818 9.461-46.66 26.303-63.501z"/><path d="m161.999 48.501c-8.284 0-15 6.716-15 15v80c0 8.284 6.716 15 15 15s15-6.716 15-15v-80c0-8.284-6.716-15-15-15z"/><path d="m248.5 48.501c-8.284 0-15 6.716-15 15v80c0 8.284 6.716 15 15 15s15-6.716 15-15v-80c0-8.284-6.716-15-15-15z"/><path d="m335.001 48.501c-8.284 0-15 6.716-15 15v80c0 8.284 6.716 15 15 15s15-6.716 15-15v-80c0-8.284-6.715-15-15-15z"/></g><path d="m199 290.488c-.031 9.896-10.13 17.886-22.556 17.847s-22.475-8.092-22.444-17.988 10.13-17.886 22.556-17.847c12.426.038 22.475 8.092 22.444 17.988z" fill="#ff8e9e"/><path d="m298 290.779c-.031 9.896 10.017 17.949 22.444 17.988 12.426.039 22.525-7.951 22.556-17.847s-10.017-17.95-22.444-17.988c-12.426-.039-22.525 7.951-22.556 17.847z" fill="#ff8e9e"/><path d="m184.5 253c-4.142 0-7.5 3.358-7.5 7.5v10c0 4.142 3.358 7.5 7.5 7.5s7.5-3.358 7.5-7.5v-10c0-4.142-3.358-7.5-7.5-7.5z" fill="#313d40"/><path d="m312.5 253c-4.142 0-7.5 3.358-7.5 7.5v10c0 4.142 3.358 7.5 7.5 7.5s7.5-3.358 7.5-7.5v-10c0-4.142-3.358-7.5-7.5-7.5z" fill="#313d40"/><path d="m268.235 281.734c-3.737-1.789-8.215-.206-10.001 3.531-1.666 3.484-5.291 5.735-9.234 5.735s-7.568-2.251-9.234-5.735c-1.787-3.737-6.266-5.317-10.001-3.531-3.737 1.787-5.318 6.265-3.531 10.001 4.143 8.666 13.079 14.265 22.766 14.265s18.623-5.599 22.766-14.265c1.787-3.736.206-8.214-3.531-10.001z" fill="#313d40"/></svg>