<svg height="512pt" viewBox="-7 0 512 512.00049" width="512pt" xmlns="http://www.w3.org/2000/svg"><path d="m255.34375 309.226562c-3.691406-2.214843-8.25-5.347656 4.867188-18.800781 6.53125-6.703125 13.398437-13.011719 19.582031-19.601562 23.246093-24.777344 43.597656-52.777344 55.105469-74.917969 1.984374-3.816406 6.691406-5.304688 10.507812-3.320312 3.820312 1.980468 5.308594 6.679687 3.324219 10.5-12.148438 23.371093-33.375 52.601562-57.566407 78.386718-6.398437 6.824219-13.21875 13.652344-20.261718 20.285156-1.507813 1.417969-6.96875 12.617188-15.558594 7.46875zm0 0" fill="#808080"/><path d="m178.191406 306.652344c-1.265625 0-6.03125-.382813-7.21875-1.03125-3.777344-2.066406-1.8125-9.496094.253906-13.269532 12.257813-22.371093 31.550782-48.074218 54.324219-72.378906 24.230469-25.824218 52.78125-49.652344 75.3125-63.226562 3.6875-2.21875 8.476563-1.03125 10.699219 2.652344 2.222656 3.679687 1.035156 8.46875-2.652344 10.6875-21.34375 12.855468-48.710937 35.730468-71.984375 60.535156-21.902343 23.371094-40.378906 47.953125-52.027343 69.210937-1.417969 2.585938-3.953126 6.820313-6.707032 6.820313zm0 0" fill="#808080"/><path d="m331.636719 306.652344c-1.621094 0-8.570313-.332032-9.964844-1.375-3.453125-2.570313-.261719-10.390625 2.3125-13.839844 18.367187-24.621094 30.207031-50.414062 31.671875-69 .339844-4.285156.699219-17.089844 7.597656-16.230469 10.996094 1.375 8.28125 13.167969 7.941406 17.453125-1.6875 21.390625-14.664062 50.207032-34.714843 77.085938-1.53125 2.050781-2.46875 5.90625-4.84375 5.90625zm-189.292969-2.773438c-3.996094 0-7.398438-3.050781-7.753906-7.105468-2.3125-26.328126 9.347656-55.53125 33.722656-84.460938 36.398438-43.199219 90.570312-74.371094 110.425781-76.035156 2.605469-.226563 14.859375 6.019531 12 9.234375-2.507812 2.820312-10.050781 4.894531-13.828125 6.816406-17.90625 4.25-64.359375 31.667969-96.675781 70.015625-15.09375 17.914062-32.574219 45.132812-30.117187 73.066406.375 4.285156-2.792969 8.0625-7.082032 8.4375-.230468.023438-.460937.03125-.691406.03125zm0 0" fill="#808080"/><g fill-rule="evenodd"><path d="m23.46875 296.089844c-22.964844 0-26.453125 20.953125-21.519531 40.984375 14.78125 60.042969 63.464843 110.332031 125.804687 137.25 7.242188 21.894531 201.296875 22.8125 209.335938.535156 62.929687-26.773437 112.175781-77.328125 127.074218-137.785156 4.933594-20.035157 1.417969-40.984375-21.519531-40.984375-139.726562 0-279.449219 0-419.175781 0zm0 0" fill="#f78411"/><path d="m178.0625 296.089844h-95.179688v40.214844c0 16.34375 13.390626 29.726562 29.734376 29.726562.886718 0 1.714843-.03125 2.574218-.117188 5.820313 15.660157 20.925782 26.859376 38.542969 26.859376 18.976563 0 35.027344-13 39.726563-30.523438.917968-3.367188 1.390624-6.914062 1.390624-10.578125v-55.578125h-16.789062zm0 0" fill="#ffdda6"/><path d="m325.976562 469.390625h-187.582031c-4.257812 0-8.070312 1.921875-10.640625 4.9375-2.101562 2.449219-3.371094 5.613281-3.371094 9.070313v14.597656c0 7.710937 6.328126 14.003906 14.011719 14.003906h187.582031c7.714844 0 14.007813-6.292969 14.007813-14.003906v-14.597656c0-3.222657-1.0625-6.175782-2.894531-8.539063-2.574219-3.3125-6.59375-5.46875-11.113282-5.46875zm0 0" fill="#e6e6e6"/><path d="m470.3125 102.671875c77.175781-61.519531-19.511719-152.203125-77.179688-69.558594l-69.195312 99.164063 6.796875 32.917968 43.394531 14.125zm0 0" fill="#50d960"/><path d="m374.125 179.316406-50.191406-47.039062-16.816406-15.78125c-7.863282-7.355469-20.308594-6.941406-27.699219.886718-7.035157 7.503907-6.976563 19.207032-.117188 26.652344.234375.265625.503907.53125.769531.796875.089844.089844.175782.179688.234376.238281l20.988281 19.648438 41.886719 39.269531 20.957031 19.679688c7.863281 7.355469 20.304687 6.941406 27.695312-.886719 7.359375-7.859375 6.945313-20.328125-.886719-27.6875zm0 0" fill="#e6e6e6"/><path d="m194.851562 296.089844h-30.179687v55.582031c0 3.664063-.472656 7.210937-1.390625 10.578125-3.367188 12.617188-12.621094 22.871094-24.621094 27.65625 4.671875 1.863281 9.753906 2.867188 15.074219 2.867188 18.976563 0 35.027344-13 39.726563-30.523438.917968-3.367188 1.390624-6.914062 1.390624-10.578125zm0 0" fill="#fcc368"/><path d="m442.644531 296.089844h-60.539062c22.941406 0 26.457031 20.953125 21.519531 40.984375-13.921875 56.554687-57.90625 104.453125-115.070312 132.316406h37.421874c4.523438 0 8.542969 2.15625 11.113282 5.464844 62.929687-26.769531 112.175781-77.324219 127.074218-137.78125 4.933594-20.03125 1.417969-40.984375-21.519531-40.984375zm0 0" fill="#f74311"/><path d="m325.976562 469.390625h-37.421874c4.492187 0 8.511718 2.15625 11.082031 5.46875 1.835937 2.363281 2.925781 5.316406 2.925781 8.539063v14.59375c0 7.714843-6.292969 14.007812-14.007812 14.007812h37.421874c7.714844 0 14.007813-6.292969 14.007813-14.007812v-14.59375c0-3.222657-1.0625-6.179688-2.894531-8.539063-2.574219-3.3125-6.59375-5.46875-11.113282-5.46875zm0 0" fill="#c2c7cc"/><path d="m470.3125 102.671875c45.164062-35.992187 30.769531-81.96875-.472656-97.363281 12.089844 21.070312 9.632812 51.117187-21.964844 76.324218l-96.183594 76.648438 22.433594 21.039062zm0 0" fill="#2bad3b"/><path d="m374.125 179.316406-6.707031-6.234375c3.339843 3.132813 8.246093 19.828125.886719 27.6875-7.09375 7.5625-18.890626 8.214844-26.78125 1.683594l1.65625 1.535156 20.957031 19.679688c7.863281 7.359375 20.304687 6.945312 27.695312-.886719 7.359375-7.859375 6.945313-20.328125-.886719-27.6875zm0 0" fill="#c2c7cc"/></g></svg>